<?xml version="1.0" standalone="no"?>
<!DOCTYPE svg PUBLIC "-//W3C//DTD SVG 20010904//EN"
 "http://www.w3.org/TR/2001/REC-SVG-20010904/DTD/svg10.dtd">
<svg version="1.0" xmlns="http://www.w3.org/2000/svg"
 width="100.000000pt" height="100.000000pt" viewBox="0 0 100.000000 100.000000"
 preserveAspectRatio="xMidYMid meet">
<metadata>
Created by potrace 1.11, written by Peter Selinger 2001-2013
</metadata>
<g transform="translate(0.000000,100.000000) scale(0.100000,-0.100000)"
fill="#000000" stroke="none">
<path d="M480 956 c0 -39 3 -45 20 -43 17 1 20 8 20 44 0 36 -3 43 -20 43 -17
0 -20 -7 -20 -44z"/>
<path d="M268 982 c-22 -4 -22 -5 3 -80 19 -57 39 -76 53 -53 3 4 -4 37 -17
73 -17 49 -26 63 -39 60z"/>
<path d="M713 977 c-14 -21 -42 -120 -37 -129 14 -22 34 -2 53 54 12 34 21 65
21 69 0 13 -29 18 -37 6z"/>
<path d="M54 932 c-3 -12 -17 -25 -31 -29 -24 -5 -24 -7 -7 -16 11 -5 26 -17
34 -26 14 -16 17 -15 42 11 25 26 25 28 6 34 -10 3 -23 15 -28 27 l-9 22 -7
-23z"/>
<path d="M925 930 c-3 -10 -16 -22 -28 -26 l-22 -7 21 -10 c12 -5 26 -17 30
-27 8 -16 11 -16 35 9 l26 26 -28 28 c-26 25 -28 26 -34 7z"/>
<path d="M487 846 c-10 -14 -25 -26 -35 -26 -12 -1 -9 -5 11 -16 15 -8 27 -21
27 -29 0 -22 18 -18 25 4 3 11 16 23 28 27 l22 7 -23 8 c-12 5 -26 18 -30 30
-8 21 -8 21 -25 -5z"/>
<path d="M114 836 c-6 -15 101 -166 118 -166 28 0 15 37 -36 105 -57 76 -72
87 -82 61z"/>
<path d="M804 775 c-34 -45 -54 -81 -50 -90 9 -23 22 -18 47 18 13 17 26 34
29 37 24 22 61 84 56 95 -10 27 -25 16 -82 -60z"/>
<path d="M322 801 c-11 -7 -10 -20 6 -72 20 -65 28 -75 49 -61 10 6 7 24 -9
75 -23 70 -25 72 -46 58z"/>
<path d="M633 743 c-18 -59 -19 -69 -6 -77 20 -11 27 -1 48 68 15 49 15 60 4
67 -23 14 -25 12 -46 -58z"/>
<path d="M482 668 c2 -30 8 -42 21 -44 14 -2 17 6 17 42 0 38 -3 44 -21 44
-18 0 -20 -5 -17 -42z"/>
<path d="M134 594 c-13 -31 -17 -34 -53 -31 l-39 3 0 -261 -1 -262 183 -1
c166 -1 187 -3 217 -21 43 -26 75 -26 118 0 32 19 50 21 217 21 l182 0 0 259
1 259 -32 0 c-39 0 -49 7 -64 41 -11 25 -14 26 -80 23 -145 -8 -263 -32 -263
-54 0 -12 -34 -4 -62 14 -28 18 -108 32 -236 40 l-74 4 -14 -34z"/>
</g>
</svg>
